<?xml version="1.0" standalone="yes"?>
<svg xmlns="http://www.w3.org/2000/svg" width="150" height="46">
<path style="fill:#47704c; stroke:none;" d="M0 0L0 16C5.54221 12.7132 9.6199 12.0007 16 12L16 7L4 7L4 0L0 0z"/>
<path style="fill:#ffffff; stroke:none;" d="M4 0L4 7L16 7L16 12C11.9282 12 6.63846 11.188 3.14815 13.7423C-4.97125 19.6842 0.652091 47.5392 12.6836 34.9853C13.8472 33.7713 14.3055 32.484 15 31L9 31L9 20L16 20C16 24.1356 14.0503 35.1558 17.6034 37.9722C19.6831 39.6208 23.5282 38.9981 26 39C26 30.0092 26.2205 20.9875 25.9853 12C25.8861 8.20645 25.3961 3.20975 21.7755 1.02778C17.3956 -1.61177 8.9714 0 4 0z"/>
<path style="fill:#47704c; stroke:none;" d="M22 0C28.0843 11.9083 26 25.9265 26 39C23.586 38.9915 20.4363 39.3907 18.3179 37.9722C14.0306 35.1015 16 24.5019 16 20L9 20L9 31L15 31C10.9457 36.7314 6.25103 40.4317 1 34C-0.551523 37.6975 0 42.0168 0 46L28 46L28 0L22 0z"/>
<path style="fill:#ffffff; stroke:none;" d="M28 0L28 46L37 46L37 39C41.8893 38.9995 47.9145 39.7081 51.5664 35.7215C56.4454 30.395 54.1861 16.7678 53.9846 10C53.8988 7.12078 53.6441 3.81002 51.3472 1.74228C46.7313 -2.41321 33.8763 0 28 0z"/>
<path style="fill:#47704c; stroke:none;" d="M50 0C54.919 7.16219 54.0032 14.6453 54 23C53.9982 27.5767 54.3399 32.2609 50.7716 35.7215C47.0253 39.3547 41.8243 38.9968 37 39L37 46L56 46L56 0L50 0z"/>
<path style="fill:#ffffff; stroke:none;" d="M56 0L56 46L66 46L66 39C70.5071 38.9995 75.9718 39.6465 79.581 36.3472C85.2727 31.1444 83.4824 16.9844 82.9066 10C82.6888 7.35742 82.1121 4.37296 80.2971 2.3179C75.9619 -2.59055 62.0426 0 56 0z"/>
<path style="fill:#47704c; stroke:none;" d="M79 0C82.9649 7.76022 83.0411 14.4314 82.9992 23C82.9759 27.7663 82.7634 33.0476 78.7755 36.3472C75.1615 39.3374 70.3929 38.9971 66 39L66 46L150 46L150 39L141 39L141 7L134 7L134 29C133.995 31.6601 134.467 35.3246 132.397 37.3966C130.325 39.47 126.664 38.9906 124 39L124 0L118 0C124.647 11.2086 122 26.283 122 39C115.446 39 104.678 41.056 99.3943 36.3472C94.1882 31.7074 94.2337 18.0501 100.133 14.0093C103.849 11.4646 108.73 12.0005 113 12C111.954 5.73338 106.18 7 101 7L101 0C93.4193 0.00585556 90.6111 2.17073 85 7L85 0L79 0z"/>
<path style="fill:#ffffff; stroke:none;" d="M85 0L85 7C88.0728 5.2363 89.991 2.90722 92 0L85 0M101 0L101 7C106.205 7.00057 111.239 6.19967 113 12C108.609 12 103.021 11.2008 99.2785 14.0093C94.0562 17.9284 94.2917 33.0481 99.3943 36.9907C104.701 41.0911 115.658 39 122 39L122 13C121.993 9.00822 122.305 4.33135 118.772 1.6034C114.576 -1.63581 106.023 0 101 0M124 0L124 39C126.472 38.9981 130.317 39.6208 132.397 37.9722C134.564 36.2541 133.995 32.4206 134 30L134 7L141 7L141 39L150 39L150 12C149.994 8.27165 150.465 3.28615 146.772 1.02778C141.489 -2.2021 130.066 0 124 0z"/>
<path style="fill:#47704c; stroke:none;" d="M147 0L149 4C149.683 2.49397 149.826 1.6852 150 0L147 0z"/>
<path style="fill:#ffffff; stroke:none;" d="M85 39L94 39L94 5C81.2228 10.9631 85 27.2165 85 39z"/>
<path style="fill:#47704c; stroke:none;" d="M37 7L37 17L37.0008 23C37.022 26.0734 39.4269 35.0956 43.9722 29.3958C45.1262 27.9488 44.9627 25.7294 44.9954 23.9992C45.0688 20.1133 46.5028 11.815 43.9722 8.6034C42.4148 6.62682 39.2117 7.02621 37 7M66 7L66 31C76.7992 30.6454 73 15.0043 73 7L66 7M113 20C111.44 20.0185 109.642 19.8506 108.123 20.3179C98.5407 23.2671 111.813 38.1329 112.941 25.9853C113.124 24.0154 113 21.9764 113 20z"/>
</svg>
